<?xml version="1.0" encoding="UTF-8" standalone="no"?>
<svg
   width="125"
   height="20"
   viewBox="0 0 135 21"
   fill="none"
   version="1.1"
   id="svg4"
   sodipodi:docname="marker.svg"
   inkscape:version="1.2.2 (732a01da63, 2022-12-09)"
   xmlns:inkscape="http://www.inkscape.org/namespaces/inkscape"
   xmlns:sodipodi="http://sodipodi.sourceforge.net/DTD/sodipodi-0.dtd"
   xmlns="http://www.w3.org/2000/svg"
   xmlns:svg="http://www.w3.org/2000/svg">
  <defs
     id="defs8" />
  <sodipodi:namedview
     id="namedview6"
     pagecolor="#ffffff"
     bordercolor="#000000"
     borderopacity="0.25"
     inkscape:showpageshadow="2"
     inkscape:pageopacity="0.0"
     inkscape:pagecheckerboard="0"
     inkscape:deskcolor="#d1d1d1"
     showgrid="false"
     inkscape:zoom="11.313709"
     inkscape:cx="108.40831"
     inkscape:cy="-1.8119611"
     inkscape:window-width="3440"
     inkscape:window-height="1361"
     inkscape:window-x="2391"
     inkscape:window-y="-9"
     inkscape:window-maximized="1"
     inkscape:current-layer="svg4" />
  <path
     style="fill:#37bc9b;stroke-width:0.0905797;fill-opacity:1"
     d="M 5.9660613,19.384677 C 4.6671741,19.102194 3.5775889,18.504035 2.5825024,17.527174 0.56938337,15.550927 -0.01835468,12.754802 1.0182318,10.085259 1.8674198,7.898328 3.9345214,6.2259099 6.25,5.8524221 6.5987319,5.7961715 8.0049819,5.6473962 9.375,5.5218105 12.704506,5.2166038 16.522632,4.7889771 22.690217,4.0305179 35.919677,2.4036243 42.282918,1.8777326 54.981884,1.3617654 66.959476,0.87510804 71.714758,0.81361001 95.878623,0.83286541 c 24.074607,0.0191843 22.808327,-0.007689 24.093217,0.51130269 0.92887,0.3751872 1.55109,0.7971387 2.35888,1.5996725 0.61636,0.6123411 0.8601,0.9367838 1.19086,1.5851449 0.65089,1.2758938 0.74828,1.6927766 0.75124,3.2155797 0.002,1.2061605 -0.0187,1.3783477 -0.25815,2.1087319 -0.68976,2.1043809 -2.2918,3.7235289 -4.41924,4.4664419 l -0.75485,0.263594 -24.818841,0.05634 c -13.650362,0.03099 -25.409873,0.08246 -26.132246,0.114379 -0.722373,0.03192 -2.92346,0.0995 -4.891305,0.150178 -8.353629,0.215118 -17.258924,0.670793 -23.913043,1.223608 -4.177377,0.347051 -7.094904,0.664287 -14.538044,1.58079 -7.210325,0.887836 -9.906538,1.191144 -14.085144,1.584494 -2.6631338,0.250692 -3.6699067,0.271194 -4.4958957,0.09156 z"
     id="path860"
     transform="matrix(1.08,0,0,1.08,0,-0.3)" />
</svg>
