<?xml version="1.0" encoding="UTF-8" standalone="no"?>
<svg
   viewBox="0 0 1440 320"
   preserveAspectRatio="none"
   version="1.1"
   id="svg8772"
   sodipodi:docname="wave-bg.svg"
   inkscape:version="1.2.2 (732a01da63, 2022-12-09)"
   xml:space="preserve"
   xmlns:inkscape="http://www.inkscape.org/namespaces/inkscape"
   xmlns:sodipodi="http://sodipodi.sourceforge.net/DTD/sodipodi-0.dtd"
   xmlns="http://www.w3.org/2000/svg"
   xmlns:svg="http://www.w3.org/2000/svg"><defs
     id="defs8776" /><sodipodi:namedview
     id="namedview8774"
     pagecolor="#ffffff"
     bordercolor="#000000"
     borderopacity="0.25"
     inkscape:showpageshadow="2"
     inkscape:pageopacity="0.0"
     inkscape:pagecheckerboard="0"
     inkscape:deskcolor="#d1d1d1"
     showgrid="false"
     inkscape:zoom="1.9166667"
     inkscape:cx="709.82609"
     inkscape:cy="219.91304"
     inkscape:window-width="3440"
     inkscape:window-height="1361"
     inkscape:window-x="2391"
     inkscape:window-y="-9"
     inkscape:window-maximized="1"
     inkscape:current-layer="svg8772" /><path
     fill="#f4f6f8"
     fill-opacity="1"
     d="m 1440,256 -21.8,-5.3 C 1396.4,245 1353,235 1309,192 1265.5,149 1222,75 1178,80 1134.5,85 1091,171 1047,186.7 1003.6,203 960,149 916,149.3 872.7,149 829,203 785,197.3 741.8,192 698,128 655,90.7 610.9,53 567,43 524,69.3 480,96 436,160 393,176 349.1,192 305,160 262,138.7 218.2,117 175,107 131,112 87.3,117 44,139 22,149.3 L 0,160 V 0 H 21.8 C 43.6,0 87,0 131,0 c 43.5,0 87,0 131,0 43.5,0 87,0 131,0 43.4,0 87,0 131,0 43.3,0 87,0 131,0 43.2,0 87,0 130,0 44.1,0 88,0 131,0 44,0 88,0 131,0 43.9,0 88,0 131,0 43.8,0 87,0 131,0 43.7,0 87,0 109,0 h 22 z"
     id="path8770" /><path
     style="fill:#37bc9b"
     d="m 973.04348,108 72.00002,32.34783"
     id="path17757" /></svg>
